<?xml version="1.0" encoding="UTF-8"?><svg id="_レイヤー_2" xmlns="http://www.w3.org/2000/svg" viewBox="0 0 55.92 40"><defs><style>.cls-1{fill:#040000;}</style></defs><g id="_アイコン"><g><path class="cls-1" d="m18.19,35.21c-.92,2.9-2.82,4.76-5.95,4.79-3.2.03-5.12-1.85-6.1-4.84H.23c-.1-.14-.2-.21-.2-.28-.01-5.32-.07-10.64.02-15.96.02-1.08.48-2.2.93-3.21,1.48-3.37,3.07-6.7,4.58-10.06.67-1.5,1.82-2.15,3.42-2.14,3.46,0,6.92,0,10.52,0V0h36.43v26.48c-.32.06-.66.13-1.15.23v8.42h-6.11c-.97,3.09-2.97,4.94-6.2,4.87-3.04-.07-4.95-1.86-5.82-4.78h-18.46Zm35.31-10.94V2.26h-31.49v22.01h31.49Zm-1.06,8.43c0-1.62-.08-3.1.02-4.58.09-1.24-.31-1.59-1.57-1.58-9.92.05-19.84.03-29.76.03h-1.69V5.93c-3.47,0-6.8.03-10.13-.02-.97-.02-1.44.36-1.82,1.22-1.38,3.12-3.54,7.97-4.98,11.07l.02,6.62h2.24s0,4.25,0,4.25h-2.25v3.63h3.64c.91-2.88,2.78-4.71,5.84-4.79,3.26-.09,5.22,1.82,6.2,4.78h18.45c.82-2.84,2.68-4.6,5.57-4.77,3.35-.19,5.43,1.69,6.41,4.78h3.81Zm-40.3,4.91c2,.01,3.76-1.71,3.74-3.66-.02-1.99-1.74-3.67-3.75-3.66-1.94.02-3.64,1.68-3.67,3.59-.03,1.98,1.68,3.71,3.67,3.72Zm34.14-3.61c.01-2.06-1.6-3.7-3.65-3.7-2.01,0-3.62,1.56-3.67,3.54-.04,2.08,1.53,3.74,3.57,3.77,2.06.03,3.73-1.57,3.74-3.61Z"/><path class="cls-1" d="m49.8,10.39v1.99h-24.09v-1.99h24.09Z"/><path class="cls-1" d="m49.8,15.42v1.99h-24.09v-1.99h24.09Z"/><path class="cls-1" d="m49.81,5.46v1.77h-24.05v-1.77h24.05Z"/><path class="cls-1" d="m25.72,22.37v-1.83h24.08v1.83h-24.08Z"/><path class="cls-1" d="m16.99,8.38v10.86H5.66c1.38-3.34,2.7-6.62,4.13-9.84.21-.47.95-.94,1.48-.97,1.88-.12,3.76-.05,5.73-.05Zm-7.89,8.67h5.42v-6.49c-.67,0-1.26-.07-1.82.02-.41.07-1.01.27-1.15.59-.85,1.87-1.6,3.79-2.45,5.88Z"/></g></g></svg>