<?xml version="1.0" encoding="UTF-8"?><svg id="_レイヤー_2" xmlns="http://www.w3.org/2000/svg" xmlns:xlink="http://www.w3.org/1999/xlink" viewBox="0 0 324.69 198.98"><defs><style>.cls-1{fill:none;}.cls-2{clip-path:url(#clippath);}.cls-3{fill:#231815;font-family:KozGoPr6N-Regular-83pv-RKSJ-H, 'Kozuka Gothic Pr6N';font-size:27.06px;}</style><clipPath id="clippath"><rect class="cls-1" x="85.74" y="-85.74" width="106.32" height="277.8" transform="translate(85.74 192.06) rotate(-90)"/></clipPath></defs><g id="_ロゴ"><g><g class="cls-2"><g><path d="m120.35,77.24c1.85.05,3.21.64,4.46,2.29.73.96,2.75,1.15,4.22,1.27,1.12.09,2.34-.33,3.42-.77,2.24-.91,4.5-1.03,6.82-.57,1.69.33,3.37.72,5.05,1.1,1.82.41,3.22,1.49,4.31,2.92,1.74,2.28,3.68,4.6,3.2,7.7-.3,1.94-1.13,3.81-1.81,5.68-.75,2.04-1.65,4.03-2.39,6.08-1.18,3.29-.88,6.53.66,9.64.77,1.55,1.51,3.12,2.42,4.58,2.1,3.39,2.48,6.77.25,10.24-.78,1.22-1.45,2.53-2.33,3.68-1.79,2.37-3.86,4.33-7.09,4.59-1.25.1-2.48.55-3.7.9-2.15.62-4.14.49-6.15-.68-2.13-1.24-6.27-.54-8.18,1.12-1.22,1.06-3.65,1.18-5.43.32-.89-.43-1.8-.84-2.75-1.09-1.24-.32-1.83-1.05-1.59-2.26.21-1.06.53-2.11.96-3.1.9-2.04,1.92-4.02,2.88-6.03.62-1.31.69-2.61,0-3.93-.93-1.74-1.69-3.59-2.78-5.22-.46-.69-1.53-1.1-2.41-1.34-2.32-.63-4.72-.98-7.02-1.66-2.59-.76-3.99-2.63-4.1-5.03-.13-2.66.96-4.71,3.45-5.62,2.2-.81,4.52-1.32,6.83-1.73,3.96-.71,5.07-1.63,5.98-5.55.27-1.15.61-2.33.59-3.48-.02-1.17-.2-2.46-.73-3.46-.85-1.59-2.1-2.95-3.11-4.46-1.32-1.98-.84-3.39,1.37-4.28.28-.12.6-.24.81-.45,1.07-1.08,2.38-1.46,3.87-1.38Z"/><path d="m176.8,135.24c-1.09-5.21-2.11-10.19-3.17-15.16-.21-.97-.43-1.98-.87-2.86-.67-1.36-.25-2.18.84-3.07,2.22-1.8,4.32-3.76,6.51-5.6.37-.31.97-.51,1.46-.51,17.1-.03,34.19-.03,51.29-.01,6.7,0,13.4.09,20.1.13.54,0,1.07,0,1.8,0-.11,2.18-.85,4.01-1.78,5.76-2.79,5.24-7.05,9.11-11.89,12.35-9.16,6.14-19.25,9.88-30.25,10.66-5.19.37-10.46.05-15.67-.22-5.76-.29-11.5-.88-17.25-1.34-.45-.04-.9-.12-1.11-.15Z"/><path d="m254.85,106.52c-.74,0-1.23,0-1.72,0-11.58-.05-23.15-.08-34.73-.14-7.29-.03-14.58-.08-21.87-.14-4.97-.04-9.93-.08-14.9-.15-.5,0-1.11-.16-1.47-.47-2.3-1.93-4.53-3.94-6.8-5.9-.62-.54-.75-1.03-.52-1.88,1.43-5.44,2.78-10.91,4.09-16.38.21-.86.44-1.31,1.44-1.39,7.83-.63,15.66-1.37,23.5-1.98,8.36-.66,16.53.39,24.45,3.13,8.53,2.95,16.33,7.12,22.6,13.78,2.59,2.75,4.64,5.82,5.57,9.54.14.56.21,1.14.37,1.99Z"/><path d="m146.51,80.82c2.42-1.65,5.08-2.57,7.88-2.82,6.82-.61,13.52.26,20.1,2.07.17.05.32.14.54.25-.7,5.95-1.68,11.85-3.94,17.37-2.67,6.49-2.77,12.86-.39,19.39,2.11,5.8,3.15,11.85,4.01,17.93.03.22,0,.45,0,.89-9.27,2.56-18.48,2.63-27.8.02,1.46-2.04,2.88-3.79,4.05-5.7.82-1.34,1.4-2.85,1.93-4.34,1.09-3.13.9-6.16-.99-9-.55-.83-.93-1.78-1.48-2.61-2.77-4.2-2.77-8.52-.62-12.95.63-1.31,1.17-2.67,1.84-3.95,2.9-5.56,1.17-9.99-2.43-13.94-.82-.9-1.75-1.69-2.69-2.59Z"/><path d="m21.41,126.92c2.82.56,5.65,1.13,8.58,1.72.17-.88.37-1.87.56-2.85.14-.05.28-.1.42-.15.5.69.95,1.43,1.53,2.05.75.81,1.54,1.6,2.42,2.27.77.59,1.35.4,1.41-.7.03-.59.1-1.18.21-1.76.05-.28.24-.54.37-.81.27.19.64.32.8.58.73,1.2,1.4,2.44,2.11,3.65.16.27.34.57.59.75.52.37,1.1.67,1.65.99.29-.53.6-1.05.85-1.6.16-.36.23-.76.42-1.4.5.43.9.69,1.19,1.03.81.98,1.52,2.05,2.37,2.99.6.66,1.29,1.3,2.07,1.72,2.92,1.62,4.67.52,4.56-2.82-.05-1.36-.24-2.72-.24-4.08,0-.73.25-1.45.38-2.18.17-.04.33-.08.5-.12.42.65.86,1.28,1.27,1.94,2.5,4,4.97,8.02,7.53,11.99.48.74,1.23,1.34,1.95,1.87.86.64,1.52.4,1.79-.7.27-1.07.56-2.13.94-3.58.62.69,1.04,1.02,1.29,1.45,3.1,5.38,4.01,5.11,9.54,3.98,8.73-1.78,15.18-6.92,20-14.22,2.65-4.01,4.46-8.42,5.87-12.99.13-.43.26-.86.44-1.45,2.61.55,5.19,1,7.71,1.68.63.17,1.12,1.01,1.57,1.62,1.93,2.61,2.53,5.35.91,8.39-1.52,2.83-2.31,5.9-2.77,9.08-.11.73-.63,1.5-1.17,2.05-5.3,5.44-11.2,10.09-17.93,13.66-6.52,3.46-13.44,4.13-20.67,3.22-6.89-.86-12.7-3.94-18.05-8.11-8.29-6.46-17.69-10.91-27.24-15.08-1.7-.74-3.35-1.63-4.99-2.5-.39-.21-.68-.6-1.02-.91.09-.22.18-.45.27-.67Z"/><path d="m67.54,76.93c-.25-.94-.48-1.88-.74-2.82-.43-1.56-1.16-1.91-2.27-.77-1.54,1.58-2.95,3.33-4.14,5.19-1.91,2.97-3.59,6.1-5.4,9.14-.23.39-.65.67-.98,1-.23-.45-.62-.89-.65-1.35-.07-1.22.01-2.45.05-3.67.01-.36.11-.72.11-1.08,0-1.26.2-2.68-1.21-3.37-1.44-.69-2.84-.11-3.92.8-1.16.99-2.07,2.28-3.09,3.43-.55.62-1.13,1.23-1.94,2.12-.24-.9-.31-1.43-.52-1.89-.21-.47-.5-1.12-.88-1.22-.37-.1-1.05.3-1.32.68-.89,1.25-1.65,2.59-2.48,3.88-.34.53-.71,1.02-1.07,1.53-.13-.05-.27-.1-.4-.15-.18-1.17-.37-2.35-.55-3.52-3.08.03-3.45,3.12-5.49,4.67-.26-1.23-.47-2.17-.68-3.17-2.9.49-5.64,1.79-8.62,1.47-.08-.13-.16-.26-.24-.38.52-.41.99-.92,1.58-1.2,4.18-1.99,8.35-4,12.59-5.87,7.24-3.19,13.88-7.39,20.12-12.19,6.54-5.03,13.89-7.59,22.11-7.76,7.76-.16,14.59,2.49,20.9,6.8,4.6,3.14,8.93,6.6,12.7,10.71.6.65.94,1.59,1.21,2.46.73,2.38,1.02,4.95,2.1,7.14,1.96,3.98,1.07,7.37-1.27,10.7-.25.36-.73.68-1.17.78-2.08.5-4.18.88-6.26,1.38-.86.21-1.09-.15-1.31-.88-1.85-6.24-4.44-12.12-8.73-17.11-5.68-6.62-12.78-10.54-21.56-11.14-1.87-.13-2.95,1.21-3.92,2.57-.75,1.05-1.43,2.14-2.14,3.22-.18-.04-.37-.08-.55-.12Z"/><path d="m255.96,177.46c2.72-.9,5.73-1.94,8.69.26-3.15-.6-5.52.69-7.52,2.94.6.87,1.21,1.71,1.74,2.59.28.46.46.99.59,1.51.67,2.76-.93,4.14-3.72,3.39.4-.85,1.23-1.77,1.12-2.55-.17-1.18-.81-2.42-1.58-3.36-2.59-3.17-5.95-5.46-9.39-7.59-5.67-3.51-11.42-6.89-17.08-10.3-.58.36-.99.62-1.46.92-5.8-4.47-12.26-7.81-18.64-11.28-3.79-2.06-7.05-4.78-9.45-8.43-.26-.4-.67-.74-1.06-1.02-2.02-1.47-3.07-3.59-4.26-6.05,2.47.15,4.63.27,6.79.43.21.02.57.26.58.42.14,1.33.41,2.69.24,3.99-.1.75-.11,1.24.36,1.8,2.12,2.51,4.67,4.52,7.65,5.84,5.23,2.31,10.55,4.41,15.82,6.63,1.09.46,2.15.99,3.16,1.58.48.28,1.12.76,1.19,1.22.19,1.32,1.17,1.61,2.1,2.14,4.1,2.35,8.14,4.78,12.23,7.15,2.94,1.71,5.94,3.3,8.83,5.08,1.1.67,1.97,1.71,3.08,2.69Z"/><path d="m255.53,27.59c1.22-.17,2.36-.45,3.36.48.99.92.91,2.12.5,3.17-.52,1.33-1.34,2.54-2.13,3.97,1.8,2.14,4.17,3.44,7.37,2.85-2.94,2.18-5.94,1.16-8.97.15-2.95,3.88-7.28,5.7-11.45,7.82-3.11,1.59-6.04,3.52-9.05,5.29-1.02.6-2.04,1.19-3.07,1.76-1.04.56-2.15.91-2.42,2.4-.1.58-1.02,1.16-1.69,1.46-3.2,1.4-6.43,2.73-9.68,4.01-4.57,1.81-9.17,3.55-13.11,6.58-.9.69-1.71,1.5-2.53,2.28-.89.85-1.57,1.62-.99,3.15.37.97-.16,2.29-.36,3.44-.03.2-.44.46-.69.48-2.12.15-4.24.25-6.36.37-.1-.12-.21-.24-.31-.35,1-1.52,1.9-3.14,3.03-4.55,1.35-1.68,2.94-3.17,4.36-4.79,2.4-2.74,5.42-4.63,8.52-6.45,5.67-3.33,11.27-6.79,16.94-10.13.46-.27,1.22-.04,1.86.18,8.32-4.7,17.02-9.01,24.43-15.34.89-.76,1.72-1.64,2.45-2.56,1.82-2.27,1.8-3.39,0-5.67Z"/><path d="m95.25,32.12c-.52,1.97-.28,2.54,1.66,3.29,1.22.47,2.5.83,3.78,1.07.34.06.99-.39,1.18-.76.73-1.49.33-2.95-.5-4.27-.55-.87-1.26-1.64-1.85-2.4,3.55.01,6.15,3.86,4.82,7.48,5.88,4.13,13.01,6.8,16.79,13.69,1.07-.42,2.26-.9,3.59-1.42.26,1.58.48,2.99.73,4.4.83,4.8,3.05,8.83,6.34,12.42,2.36,2.57,4.29,5.53,6.46,8.27.52.65,1.28,1.11,1.85,1.73.73.81,1.38,1.69,2.07,2.55-.1.13-.2.26-.31.4-1.58-.31-3.2-.53-4.73-.99-.35-.11-.79-1.26-.59-1.6.43-.75.17-1.2-.27-1.66-1.78-1.82-3.63-3.57-5.38-5.41-2.19-2.3-4.37-4.62-6.46-7.01-2.47-2.82-5.45-4.75-9.07-5.72-.21-.06-.41-.15-.75-.28,1.22-.34,2.29-.64,3.57-1-.76-.57-1.33-.99-2-1.49.53-.43,1.05-.85,1.37-1.11-1.64-2.33-3.24-4.66-4.91-6.94-3.14-4.27-7.57-5.93-12.68-5.98-2.18-.02-4.06-.51-5.45-2.25-1.66-2.08-1.44-3.46.73-5Z"/><path d="m104.32,179.23c1.39,3.64-.82,6.97-4.59,7.53.72-1.25,1.55-2.65,2.31-4.09.2-.37.21-.89.18-1.33-.13-1.82-.75-2.3-2.46-1.85-1.09.29-2.19.61-3.22,1.06-1.61.7-1.82,1.32-1.22,3-2.14-1.11-2.49-2.47-1.1-4.47,1.26-1.82,3-2.7,5.23-2.65,4.56.11,8.61-1.26,11.93-4.44.87-.84,1.48-1.95,2.2-2.94,1.33-1.82,2.66-3.65,4.03-5.53-.3-.25-.82-.67-1.4-1.13.63-.49,1.22-.94,1.97-1.52-1.27-.35-2.34-.65-3.71-1.03,3.42-.82,6.27-2.2,8.56-4.51,1.65-1.67,3.06-3.59,4.7-5.27,2.23-2.28,4.59-4.42,6.87-6.64.62-.6,1.14-1.3,1.7-1.96.41-.49.69-.91.23-1.65-.42-.66-.14-1.46.76-1.67,1.49-.35,3.01-.62,4.51-.93l.31.3c-.52.78-.86,1.86-1.59,2.28-1.87,1.09-2.81,2.93-4.09,4.49-2.08,2.52-4.11,5.1-6.18,7.63-3.31,4.05-4.78,8.8-5.3,13.91-.03.31-.08.61-.16,1.19-1.31-.53-2.5-1.01-3.69-1.48-1.6,3.41-4.37,5.73-7.39,7.75-3.05,2.05-6.21,3.94-9.38,5.94Z"/><path d="m163.83,139.16c2.09-.21,4.07-.45,6.05-.57.31-.02.93.43.94.68.06,1.28-.03,2.57-.07,3.85-.01.34-.16.69-.09,1,.76,3.27,1.65,6.51,2.3,9.79,1.12,5.67,2.63,9.47,6.64,15.95-.62.16-1.22.31-2.08.53.58,1.43,1.12,2.79,1.68,4.15.76,1.8,1.56,3.59,2.3,5.4,1.45,3.54,1.14,7.22.86,10.9-.02.27-.05.54-.08.81-.35,3.1.55,5.59,3.64,7-2.06.87-4.44-.03-6.27-2.3-1.04,1.69-2.68,2.09-4.46,1.93-1.66-.16-3.33-.48-4.35-2.3.49.07.83.11,1.17.17,3.52.58,5.99-.96,6.83-4.46,1.49-6.24.95-12.43-2.58-17.72-3.4-5.11-4.65-10.77-6.17-16.45-.73-2.75-1.59-5.48-2.53-8.17-1.02-2.95-2.2-5.85-3.3-8.78-.16-.41-.26-.85-.43-1.4Z"/><path d="m170.86,19.78c2.04-2.94,6.52-3.09,8.82-.38,1.5-2.07,3.53-2.87,6.01-2.57.12.13.24.26.37.39-.22.05-.46.04-.65.14-2.91,1.54-3.57,4.17-3.09,7.1.96,5.97-.32,11.45-3.07,16.72-.68,1.31-1.14,2.73-1.74,4.19.82.2,1.42.35,1.7.42-1.61,3.53-3.46,6.98-4.75,10.62-1.07,3.01-1.47,6.26-2.17,9.41-.26,1.15-.48,2.32-.82,3.45-.48,1.57-1.17,3.03-.36,4.77.31.66-.08,1.7-.31,2.52-.08.29-.66.65-.99.63-1.94-.13-3.87-.36-5.99-.57.32-.99.55-1.9.89-2.76,1.3-3.33,2.82-6.6,3.91-10,1.07-3.32,1.68-6.78,2.59-10.15.73-2.67,1.49-5.35,2.48-7.92.48-1.24,1.62-2.21,2.33-3.38,3.19-5.28,4.12-11.03,3.09-17.05-.63-3.68-2.42-6.84-8.25-5.57Z"/><path d="m179.37,107.03c-2.6,2.16-5,4.16-7.53,6.27-1.67-4.2-1.52-8.2,0-12.47,2.54,2.09,4.97,4.09,7.54,6.2Z"/></g></g><text class="cls-3" transform="translate(0 140.2)"><tspan x="0" y="0">有限会社インテリアロード</tspan></text></g></g></svg>