<?xml version="1.0" encoding="UTF-8"?><svg id="_レイヤー_2" xmlns="http://www.w3.org/2000/svg" viewBox="0 0 67.72 55.91"><defs><style>.cls-1{fill:#231815;}.cls-2{fill:none;stroke:#231815;stroke-miterlimit:10;stroke-width:2.83px;}</style></defs><g id="_アイコン"><g><g><rect class="cls-2" x="44.14" y="2.88" width="13.48" height="35.78" transform="translate(17.62 -22.98) rotate(30.55)"/><line class="cls-2" x1="58.04" y1="4.23" x2="39.85" y2="35.03"/><line class="cls-2" x1="61.91" y1="6.51" x2="43.72" y2="37.32"/><polyline class="cls-2" points="47.59 39.6 35.38 47.03 35.98 32.75"/><polygon class="cls-1" points="35.38 47.03 35.65 40.59 40.89 43.68 35.38 47.03"/></g><path class="cls-1" d="m2.64,51.08c1.78-3.21,4.1-7.34,8.28-7.41,2.19-.04,4.5.84,6.35,1.98,2.19,1.35,2,3.43,1.33,5.64-.19.63-.38,1.72-1.16,1.81-1.01.12-2.53-.79-3.35-1.27-.7-.41-2-1.08-2.33-1.87s.42-1.98.82-2.64c1.9-3.14,5.68-4.91,9.3-4.71,4.43.25,8.23,3.34,10.25,7.15.85,1.61,3.3.18,2.45-1.43-2.52-4.76-7.39-8.34-12.87-8.56-5.14-.21-10.4,2.87-12.35,7.7-.47,1.16-.72,2.43-.18,3.62.61,1.35,2.07,2.34,3.3,3.09,2.19,1.32,5.73,2.91,7.69.44,1.55-1.96,2.25-5.63,1.48-8-.91-2.79-3.97-4.16-6.53-5.04-3.13-1.08-6.56-1.01-9.33.96-2.5,1.78-4.12,4.48-5.58,7.12-.89,1.6,1.56,3.03,2.45,1.43h0Z"/></g></g></svg>